{"title":"Flipped 2010 DVDrip English Klam","uid":6451937,"size":1349588930,"categoryP":"video","categoryS":"movies","magnet":"?xt=urn:btih:fb7fa255b6a43bd3cedaabd677e64e7e2d176549&amp;dn=Flipped+2010+DVDrip+English+Klam&amp;tr=udp%3A%2F%2Ftracker.openbittorrent.com%3A80&amp;tr=udp%3A%2F%2Fopen.demonii.com%3A1337&amp;tr=udp%3A%2F%2Ftracker.coppersurfer.tk%3A6969&amp;tr=udp%3A%2F%2Fexodus.desync.com%3A6969","seeders":2,"leechers":0,"uploader":"Klambake","files":-1,"time":1307457675,"description":"With: Madeline Carroll, Callan McAuliffe and Aidan Quinn\n\n'Flipped' vertelt het verhaal van Juli Baker en Bryce Loski. Juli houdt van kippen, zit vaak tijdenlang bovenin haar lievelingsboom voor zich uit te staren en gelooft, vanaf het begin dat ze zijn mooie blauwe ogen zag, dat ze ooit met Bryce zal gaan zoenen. Jammer genoeg voelt Bryce niet zoveel voor Juli. Hij vindt haar zelfs maar een beetje vreemd, want wie houdt er nou van kippen en zit zo lang wat dom voor zich uit te staren in een boom? In groep acht verandert echter alles. Bryce begint Juli toch wel erg leuk te vinden, terwijl Juli begint te denken dat de mooie blauwe ogen van Bryce misschien wel net zo leeg zijn als hijzelf...\n\nJuli Baker devoutly believes in three things: the sanctity of trees (especially her beloved sycamore), the wholesomeness of the eggs she collects from her backyard flock of chickens, and that someday she will kiss Bryce Loski. Ever since she saw Bryce's baby blues back in second grade, Juli has been smitten. Unfortunately, Bryce has never felt the same. Frankly, he thinks Juli Baker is a little weird--after all, what kind of freak raises chickens and sits in trees for fun?\n\nGeneral:\n\nComplete name                    : Flipped\\Flipped.avi\nFormat                           : AVI\nFormat/Info                      : Audio Video Interleave\nFile size                        : 1.26 GiB\nDuration                         : 1h 29mn\nOverall bit rate                 : 2 005 Kbps\n\nVideo:\n\nFormat                           : MPEG-4 Visual\nFormat profile                   : Simple@L3\nFormat settings, BVOP            : No\nFormat settings, QPel            : No\nFormat settings, GMC             : No warppoints\nFormat settings, Matrix          : Default (H.263)\nCodec ID                         : XVID\nCodec ID/Hint                    : XviD\nDuration                         : 1h 29mn\nBit rate                         : 1 546 Kbps\nWidth                            : 652 pixels\nHeight                           : 352 pixels\nDisplay aspect ratio             : 1.852\nFrame rate                       : 23.976 fps\nColor space                      : YUV\nChroma subsampling               : 4:2:0\nBit depth                        : 8 bits\nScan type                        : Progressive\nBits/(Pixel*Frame)               : 0.281\nStream size                      : 992 MiB (77%)\nWriting library                  : XviD 1.1.2 (UTC 2006-11-01)\n\nAudio:\n\nFormat                           : AC-3\nFormat/Info                      : Audio Coding 3\nMode extension                   : CM (complete main)\nCodec ID                         : 2000\nDuration                         : 1h 29mn\nBit rate mode                    : Constant\nBit rate                         : 448 Kbps\nChannel(s)                       : 6 channels\nChannel positions                : Front: L C R, Side: L R, LFE\nSampling rate                    : 48.0 KHz\nBit depth                        : 16 bits\nStream size                      : 288 MiB (22%)\nAlignment                        : Aligned on interleaves\nInterleave, duration             : 32 ms (0.77 video frame)\nInterleave, preload duration     : 288 ms\n\n","torrent":{"xt":"urn:btih:fb7fa255b6a43bd3cedaabd677e64e7e2d176549","amp;dn":"Flipped+2010+DVDrip+English+Klam","amp;tr":["udp%3A%2F%2Ftracker.openbittorrent.com%3A80","udp%3A%2F%2Fopen.demonii.com%3A1337","udp%3A%2F%2Ftracker.coppersurfer.tk%3A6969","udp%3A%2F%2Fexodus.desync.com%3A6969"],"infoHash":"fb7fa255b6a43bd3cedaabd677e64e7e2d176549","infoHashBuffer":{"type":"Buffer","data":[251,127,162,85,182,164,59,211,206,218,171,214,119,230,78,126,45,23,101,73]},"announce":[],"urlList":[]}}